<svg xmlns="http://www.w3.org/2000/svg" viewBox="0 0 26 26">
  <g fill="none" fill-rule="evenodd" transform="translate(1 1)">
    <ellipse cx="12" cy="12" fill="#0AD02C" rx="12" ry="12"/>
    <path fill="#FFF" d="M15.577 14.087c.56.176 3.226 1.864 3.403 2.5.177.64-.868 1.988-1.51 2.318-.644.33-2.71-.235-4.358-1.14-1.448-.793-2.177-1.348-3.883-3.054-1.707-1.705-2.2-2.372-2.996-3.822-.904-1.65-1.47-3.714-1.14-4.357.33-.642 1.68-1.687 2.318-1.51.637.177 2.325 2.842 2.5 3.403.177.56-1.2 1.726-1.065 2.308.118.507 1.61 1.98 2 2.362 0 0 1.917 1.943 2.422 2.06.58.137 1.746-1.24 2.307-1.065z"/>
  </g>
</svg>
